<?xml version="1.0" standalone="no"?>
<!DOCTYPE svg PUBLIC "-//W3C//DTD SVG 20010904//EN"
 "http://www.w3.org/TR/2001/REC-SVG-20010904/DTD/svg10.dtd">
<svg version="1.0" xmlns="http://www.w3.org/2000/svg"
 width="1280.000000pt" height="741.000000pt" viewBox="0 0 1280.000000 741.000000"
 preserveAspectRatio="xMidYMid meet">
<metadata>
Created by potrace 1.16, written by Peter Selinger 2001-2019
</metadata>
<g transform="translate(0.000000,741.000000) scale(0.100000,-0.100000)"
fill="#000000" stroke="none">
<path d="M1825 7278 c-2 -7 -45 -179 -95 -383 -429 -1749 -913 -3377 -1356
-4563 -69 -184 -140 -387 -159 -451 -194 -673 -78 -1185 345 -1524 140 -113
319 -179 573 -214 126 -17 382 -18 5267 -18 4885 0 5141 1 5267 18 327 45 516
135 705 336 125 134 214 286 262 453 38 133 49 248 43 435 -9 275 -57 463
-226 894 -413 1056 -837 2464 -1311 4354 l-168 670 -4571 3 c-3652 2 -4572 0
-4576 -10z m9026 -475 c134 -557 384 -1501 560 -2118 300 -1048 563 -1850 837
-2550 160 -409 213 -647 199 -900 -15 -254 -102 -452 -272 -619 -108 -106
-220 -172 -355 -207 -174 -45 129 -43 -5335 -46 -3709 -3 -5154 -1 -5245 7
-280 25 -422 75 -564 199 -101 88 -170 177 -223 286 -63 132 -84 223 -90 395
-10 263 38 484 194 900 461 1232 930 2794 1373 4578 l82 332 4388 0 4388 0 63
-257z"/>
<path d="M6910 6414 c-78 -21 -168 -66 -217 -108 -123 -108 -178 -306 -119
-432 41 -88 138 -138 357 -184 115 -24 190 -59 223 -103 33 -44 28 -137 -10
-207 -54 -101 -167 -154 -330 -153 -111 1 -193 21 -302 73 -46 22 -85 40 -87
40 -1 0 -8 -28 -14 -62 -6 -35 -14 -75 -17 -90 -5 -26 -2 -28 73 -51 136 -43
192 -52 333 -51 204 1 320 39 428 139 124 115 175 320 111 452 -44 90 -129
138 -326 183 -155 35 -180 43 -222 64 -85 44 -77 187 16 280 79 78 255 107
412 67 46 -11 108 -32 139 -46 30 -14 57 -23 60 -20 5 5 31 129 32 152 0 14
-72 39 -174 58 -99 19 -293 19 -366 -1z"/>
<path d="M2322 5768 c-67 -354 -122 -646 -122 -650 0 -5 38 -8 84 -8 l83 0 41
213 c23 116 69 359 104 540 34 180 65 322 69 315 3 -7 86 -251 184 -541 l178
-528 120 3 121 3 116 610 c65 336 120 627 124 648 l7 37 -85 0 -84 0 -11 -47
c-5 -27 -51 -267 -102 -535 -51 -269 -96 -488 -99 -488 -3 0 -86 240 -185 533
l-181 532 -120 3 -119 3 -123 -643z"/>
<path d="M3780 6404 c0 -10 -241 -1269 -245 -1282 -4 -10 81 -12 417 -10 l422
3 13 60 c7 33 12 66 13 73 0 9 -72 12 -330 12 -181 0 -330 2 -330 4 0 7 79
417 85 444 l5 22 309 0 309 0 11 50 c6 28 11 62 11 75 l0 25 -305 0 c-168 0
-305 4 -305 9 0 5 16 89 35 187 19 99 35 180 35 182 0 1 146 2 324 2 l323 0
15 75 15 75 -413 0 c-228 0 -414 -2 -414 -6z"/>
<path d="M4800 6383 c0 -16 16 -291 35 -613 19 -322 35 -602 35 -622 l0 -38
114 0 114 0 212 488 c117 268 227 520 245 561 l32 73 7 -83 c3 -46 15 -271 26
-499 11 -228 23 -443 26 -478 l6 -63 111 3 111 3 283 640 c156 351 283 643
283 648 0 4 -39 6 -87 5 l-88 -3 -236 -537 c-129 -296 -239 -541 -242 -545 -4
-3 -7 10 -7 30 0 46 -48 889 -56 985 l-6 72 -98 0 -98 0 -69 -157 c-38 -87
-145 -332 -239 -544 -164 -375 -169 -385 -176 -345 -3 22 -19 267 -34 544
l-28 502 -88 0 -88 0 0 -27z"/>
<path d="M2061 4163 c-65 -278 -142 -520 -373 -1183 -161 -459 -240 -712 -292
-930 -62 -262 -71 -326 -71 -550 0 -184 2 -213 23 -284 76 -262 231 -409 512
-487 l85 -24 2343 -3 2342 -2 0 1780 0 1780 -2273 0 -2273 0 -23 -97z m4339
-1168 l0 -1045 -562 -1 c-310 0 -1389 -6 -2398 -13 -1009 -7 -1836 -13 -1837
-12 -5 3 83 327 128 474 28 92 123 373 210 626 158 454 260 771 300 932 l21
84 2069 0 2069 0 0 -1045z"/>
<path d="M8055 4164 c-20 -20 -19 -68 1 -88 17 -18 49 -27 79 -23 14 1 21 -5
23 -20 2 -13 8 -23 13 -23 10 0 12 43 3 115 l-6 50 -49 2 c-32 2 -53 -3 -64
-13z"/>
<path d="M10110 3922 c0 -26 -2 -28 -35 -24 -45 5 -65 -12 -65 -53 0 -41 42
-80 75 -70 11 4 30 6 43 6 21 -1 22 1 16 72 -3 39 -7 78 -10 85 -7 23 -24 12
-24 -16z"/>
<path d="M7526 3884 c-21 -20 -20 -53 0 -83 14 -20 23 -23 60 -18 24 2 44 1
44 -2 0 -17 -27 -31 -58 -31 -19 0 -31 -4 -27 -10 10 -16 72 -12 89 6 16 16
21 68 10 121 -5 27 -9 29 -54 31 -33 1 -54 -3 -64 -14z"/>
<path d="M8640 3616 c0 -29 3 -67 6 -83 6 -29 7 -30 62 -29 53 1 57 3 66 29 8
21 7 35 -5 55 -13 23 -21 27 -62 26 -45 0 -47 1 -47 28 0 15 -4 28 -10 28 -5
0 -10 -24 -10 -54z"/>
<path d="M8552 3328 c-7 -7 -12 -27 -12 -45 0 -41 36 -68 80 -59 22 4 30 2 30
-9 0 -18 -40 -29 -69 -20 -12 3 -21 2 -21 -3 0 -14 46 -24 75 -16 37 9 47 36
39 103 l-6 58 -52 2 c-29 0 -58 -5 -64 -11z"/>
<path d="M9680 3321 c-16 -30 -12 -59 11 -82 17 -17 29 -20 60 -16 36 5 38 4
28 -15 -8 -15 -18 -19 -45 -16 -40 5 -46 -9 -7 -18 38 -10 77 15 81 51 2 16 1
48 -3 70 l-6 42 -54 2 c-45 1 -56 -2 -65 -18z"/>
<path d="M9954 3058 c3 -29 6 -67 6 -84 0 -30 1 -30 55 -32 48 -1 57 2 71 23
33 51 -27 122 -82 96 -22 -10 -24 -9 -24 19 0 21 -5 30 -16 30 -14 0 -16 -8
-10 -52z"/>
<path d="M8760 2798 c0 -18 3 -56 6 -83 l6 -50 46 -2 c25 -1 54 3 64 8 20 11
24 58 8 89 -12 23 -66 36 -84 21 -11 -9 -15 -5 -19 19 -9 40 -27 38 -27 -2z"/>
<path d="M9016 2758 c3 -40 7 -78 9 -83 1 -6 26 -12 54 -13 44 -2 53 1 67 23
34 52 -19 120 -77 98 -28 -11 -29 -10 -29 18 0 19 -5 29 -15 29 -13 0 -14 -12
-9 -72z"/>
<path d="M9640 2800 c0 -27 -2 -30 -19 -20 -45 23 -81 -1 -81 -55 0 -44 29
-64 91 -63 l47 1 -5 61 c-6 80 -11 106 -23 106 -6 0 -10 -14 -10 -30z"/>
<path d="M8370 2526 c0 -23 -3 -25 -29 -20 -46 10 -71 -10 -71 -56 0 -51 29
-72 89 -66 23 2 43 5 46 7 9 10 -11 153 -22 157 -8 2 -13 -6 -13 -22z"/>
<path d="M7817 2448 c6 -83 11 -108 23 -108 6 0 10 11 10 24 0 22 3 24 33 20
44 -7 70 14 70 56 0 53 -67 92 -101 58 -9 -9 -12 -9 -12 0 0 7 -6 12 -14 12
-11 0 -13 -13 -9 -62z"/>
<path d="M8900 2456 c0 -65 9 -116 21 -116 5 0 9 14 9 30 0 27 2 29 20 18 27
-17 72 1 84 34 18 52 -50 108 -96 79 -11 -7 -18 -7 -18 -1 0 5 -4 10 -10 10
-5 0 -10 -24 -10 -54z"/>
<path d="M8266 2212 c-23 -26 -20 -59 9 -87 26 -27 46 -31 76 -15 17 10 19 7
19 -20 0 -19 5 -30 14 -30 11 0 13 13 9 63 -7 105 -6 102 -61 105 -37 1 -53
-3 -66 -16z"/>
<path d="M7517 1876 c2 -39 6 -77 9 -83 7 -25 24 -13 24 17 0 28 1 29 25 18
19 -9 29 -8 50 6 34 22 37 65 8 98 -12 13 -30 18 -69 17 l-53 -2 6 -71z"/>
<path d="M10944 1925 c-14 -21 -14 -30 -4 -55 13 -32 44 -45 85 -38 14 3 25 2
25 -2 0 -17 -32 -32 -60 -28 -19 3 -29 1 -27 -6 5 -16 69 -19 89 -4 19 15 21
23 19 99 l-1 56 -55 2 c-48 1 -57 -2 -71 -24z"/>
<path d="M7635 1692 c6 -27 5 -28 -36 -24 -33 3 -46 0 -56 -14 -33 -45 0 -106
57 -104 19 0 43 1 53 1 13 0 17 9 17 38 0 73 -12 131 -27 131 -11 0 -13 -7 -8
-28z"/>
</g>
</svg>
